<?xml version="1.0" encoding="utf-8"?>
<!-- Generator: Adobe Illustrator 22.0.0, SVG Export Plug-In . SVG Version: 6.00 Build 0)  -->
<svg version="1.1" xmlns="http://www.w3.org/2000/svg" xmlns:xlink="http://www.w3.org/1999/xlink" x="0px" y="0px"
	 viewBox="0 0 330 330" style="enable-background:new 0 0 330 330;" xml:space="preserve">
<style type="text/css">
	.st0{opacity:0.41;fill:#0071BC;}
	.st1{display:none;}
	.st2{display:inline;}
	.st3{fill:#0071BC;}
	.st4{display:inline;fill:#0071BC;}
	.st5{display:inline;fill:#FFFFFF;stroke:#0071BC;stroke-width:2;stroke-miterlimit:10;}
</style>
<g id="Calque_1">
	<path class="st0" d="M292.2,225.1l-28.1-20.7l-17.7-11.7h0c10.5-5,17.7-15,17.7-26.6c0-16.6-14.8-30-33.1-30
		c-18.3,0-33.1,13.5-33.1,30c0,13.9,10.4,25.6,24.5,29l-2.5,4.5l-22,6.9l-12.2,27.6c0,0,2.3,56.6,0,60.1c-2.3,3.5-3.8,42.8-3.8,42.8
		h120.8c0-9.7,0-58,0-58L292.2,225.1z"/>
</g>
<g id="Calque_2" class="st1">
	<g class="st2">
		<circle class="st3" cx="105.5" cy="98.5" r="43.5"/>
	</g>
	<path class="st4" d="M11,346c0-14,0-84,0-84l14-78l37-30l23.2-17H115l5,10l29,10l16,40c0,0-3,82,0,87s5,62,5,62H11z"/>
</g>
<g id="Calque_3" class="st1">
	<path class="st5" d="M216,4c-60.8,0-110,21.5-110,48c0,19.6,26.9,36.4,65.4,43.9l-15.9,16.6l46.2-12.9c4.7,0.3,9.5,0.4,14.3,0.4
		c60.8,0,110-21.5,110-48C326,25.5,276.8,4,216,4z"/>
	<g class="st2">
		<path d="M158.1,34.5h-7.2v6.7h8.1v2h-10.5V24.6h10v2h-7.6v5.9h7.2V34.5z"/>
		<path d="M161.7,40.3c1.1,0.7,2.6,1.2,4.3,1.2c2.5,0,3.9-1.3,3.9-3.2c0-1.7-1-2.7-3.5-3.7c-3-1.1-4.9-2.6-4.9-5.3c0-2.9,2.4-5,6-5
			c1.9,0,3.3,0.4,4.1,0.9l-0.7,2c-0.6-0.3-1.8-0.9-3.5-0.9c-2.5,0-3.5,1.5-3.5,2.8c0,1.7,1.1,2.6,3.7,3.6c3.1,1.2,4.7,2.7,4.7,5.5
			c0,2.9-2.1,5.4-6.5,5.4c-1.8,0-3.8-0.5-4.7-1.2L161.7,40.3z"/>
		<path d="M175.6,24.8c1.2-0.2,2.7-0.4,4.6-0.4c2.4,0,4.1,0.6,5.2,1.5c1,0.9,1.6,2.2,1.6,3.9c0,1.7-0.5,3-1.4,4
			c-1.3,1.4-3.3,2-5.7,2c-0.7,0-1.4,0-1.9-0.2v7.4h-2.4V24.8z M178,33.8c0.5,0.1,1.2,0.2,2,0.2c2.9,0,4.7-1.4,4.7-4
			c0-2.5-1.7-3.6-4.4-3.6c-1,0-1.8,0.1-2.3,0.2V33.8z"/>
		<path d="M199.9,34.5h-7.2v6.7h8.1v2h-10.5V24.6h10v2h-7.6v5.9h7.2V34.5z"/>
		<path d="M216.9,42.6c-0.9,0.4-2.6,0.9-4.9,0.9c-5.2,0-9.2-3.3-9.2-9.4c0-5.8,3.9-9.8,9.7-9.8c2.3,0,3.8,0.5,4.4,0.8l-0.6,2
			c-0.9-0.4-2.2-0.8-3.8-0.8c-4.4,0-7.3,2.8-7.3,7.7c0,4.6,2.6,7.5,7.1,7.5c1.5,0,3-0.3,3.9-0.8L216.9,42.6z"/>
		<path d="M229.5,34.5h-7.2v6.7h8.1v2h-10.5V24.6h10v2h-7.6v5.9h7.2V34.5z"/>
		<path d="M239.3,24.9c1.5-0.2,3.2-0.4,5.1-0.4c3.4,0,5.9,0.8,7.5,2.3c1.7,1.5,2.6,3.7,2.6,6.7c0,3-0.9,5.5-2.7,7.2
			c-1.7,1.7-4.6,2.7-8.2,2.7c-1.7,0-3.1-0.1-4.4-0.2V24.9z M241.7,41.3c0.6,0.1,1.5,0.1,2.4,0.1c5.1,0,7.9-2.9,7.9-7.9
			c0-4.4-2.5-7.2-7.5-7.2c-1.2,0-2.2,0.1-2.8,0.2V41.3z"/>
		<path d="M267.4,34.5h-7.2v6.7h8.1v2h-10.5V24.6h10v2h-7.6v5.9h7.2V34.5z"/>
		<path d="M148.1,73.4c1.1,0.7,2.6,1.2,4.3,1.2c2.5,0,3.9-1.3,3.9-3.2c0-1.7-1-2.7-3.5-3.7c-3-1.1-4.9-2.6-4.9-5.3c0-2.9,2.4-5,6-5
			c1.9,0,3.3,0.4,4.1,0.9l-0.7,2c-0.6-0.3-1.8-0.9-3.5-0.9c-2.5,0-3.5,1.5-3.5,2.8c0,1.7,1.1,2.6,3.7,3.6c3.1,1.2,4.7,2.7,4.7,5.5
			c0,2.9-2.1,5.4-6.5,5.4c-1.8,0-3.8-0.5-4.7-1.2L148.1,73.4z"/>
		<path d="M165.1,70.5l-1.9,5.8h-2.5l6.3-18.6h2.9l6.3,18.6h-2.6l-2-5.8H165.1z M171.2,68.6l-1.8-5.4c-0.4-1.2-0.7-2.3-1-3.4h-0.1
			c-0.3,1.1-0.6,2.2-0.9,3.4l-1.8,5.4H171.2z"/>
		<path d="M178.9,57.7h2.4v16.6h7.9v2h-10.3V57.7z"/>
		<path d="M193.4,57.7v11c0,4.2,1.8,5.9,4.3,5.9c2.8,0,4.5-1.8,4.5-5.9v-11h2.4v10.8c0,5.7-3,8.1-7,8.1c-3.8,0-6.7-2.2-6.7-7.9v-11
			H193.4z"/>
		<path d="M218.5,67.6h-7.2v6.7h8.1v2h-10.5V57.7h10v2h-7.6v5.9h7.2V67.6z"/>
		<path d="M228.3,58c1.2-0.2,2.7-0.4,4.6-0.4c2.4,0,4.1,0.6,5.2,1.5c1,0.9,1.6,2.2,1.6,3.9c0,1.7-0.5,3-1.4,4c-1.3,1.4-3.3,2-5.7,2
			c-0.7,0-1.4,0-1.9-0.2v7.4h-2.4V58z M230.7,66.9c0.5,0.1,1.2,0.2,2,0.2c2.9,0,4.7-1.4,4.7-4c0-2.5-1.7-3.6-4.4-3.6
			c-1,0-1.8,0.1-2.3,0.2V66.9z"/>
		<path d="M245.4,57.7v11c0,4.2,1.8,5.9,4.3,5.9c2.8,0,4.5-1.8,4.5-5.9v-11h2.4v10.8c0,5.7-3,8.1-7,8.1c-3.8,0-6.7-2.2-6.7-7.9v-11
			H245.4z"/>
		<path d="M264.4,59.8h-5.7v-2h13.8v2h-5.7v16.6h-2.4V59.8z"/>
		<path d="M284.2,67.6h-7.2v6.7h8.1v2h-10.5V57.7h10v2h-7.6v5.9h7.2V67.6z"/>
	</g>
</g>
</svg>
